<svg width="24" height="24" viewBox="0 0 24 24" fill="none" xmlns="http://www.w3.org/2000/svg">
<g clip-path="url(#clip0_1453_8536)">
<path d="M20.3624 4.47451C18.8513 3.79303 17.2315 3.28933 15.5377 3.00291C15.5226 3.00002 15.507 3.00188 15.493 3.00825C15.4791 3.01462 15.4674 3.02518 15.4597 3.03847C15.2523 3.40291 15.0212 3.87797 14.8592 4.25327C13.0628 3.98487 11.2364 3.98487 9.44 4.25327C9.25959 3.83734 9.05615 3.43177 8.83062 3.03847C8.82298 3.02502 8.81141 3.01422 8.79747 3.00752C8.78353 3.00081 8.76787 2.99852 8.7526 3.00094C7.05977 3.28736 5.44003 3.79105 3.92795 4.47352C3.91494 4.47897 3.90391 4.48828 3.89634 4.50018C0.822788 9.01866 -0.0196735 13.4255 0.39415 17.7771C0.395302 17.7878 0.39861 17.7981 0.403873 17.8074C0.409137 17.8167 0.416246 17.8249 0.424767 17.8314C2.21872 19.1375 4.21963 20.1325 6.34373 20.7746C6.35853 20.7792 6.37437 20.7791 6.38917 20.7746C6.40397 20.77 6.41705 20.761 6.42669 20.7489C6.88298 20.1366 7.28989 19.4897 7.63754 18.8102C7.65828 18.7707 7.63853 18.7233 7.59705 18.7075C6.95904 18.4672 6.34085 18.1773 5.74818 17.8403C5.73753 17.8342 5.72855 17.8256 5.72206 17.8152C5.71557 17.8048 5.71176 17.7929 5.71098 17.7807C5.71019 17.7685 5.71246 17.7562 5.71757 17.7451C5.72269 17.7339 5.73049 17.7242 5.74028 17.7169C5.86472 17.625 5.98916 17.5292 6.10768 17.4334C6.11835 17.4248 6.1312 17.4193 6.1448 17.4176C6.1584 17.4158 6.17222 17.4179 6.18472 17.4235C10.0632 19.1657 14.2637 19.1657 18.0967 17.4235C18.1092 17.4175 18.1232 17.4152 18.137 17.4168C18.1508 17.4183 18.1639 17.4238 18.1747 17.4324C18.2933 17.5292 18.4167 17.625 18.5421 17.7169C18.552 17.7241 18.56 17.7337 18.5652 17.7447C18.5705 17.7558 18.573 17.7679 18.5724 17.7802C18.5718 17.7924 18.5682 17.8043 18.5619 17.8148C18.5556 17.8253 18.5467 17.8341 18.5362 17.8403C17.9456 18.1801 17.3313 18.4675 16.6864 18.7065C16.6764 18.7101 16.6674 18.7157 16.6599 18.7231C16.6523 18.7305 16.6465 18.7393 16.6426 18.7492C16.6388 18.759 16.6371 18.7695 16.6377 18.78C16.6382 18.7905 16.641 18.8008 16.6459 18.8102C17.0014 19.4887 17.4083 20.1346 17.8557 20.7479C17.865 20.7605 17.878 20.7699 17.8928 20.7749C17.9077 20.7798 17.9237 20.7801 17.9387 20.7756C20.0664 20.1352 22.0706 19.1398 23.8665 17.8314C23.8753 17.8253 23.8827 17.8174 23.8881 17.8082C23.8936 17.799 23.897 17.7887 23.8981 17.7781C24.392 12.747 23.0705 8.3757 20.393 4.50216C20.3864 4.48957 20.3756 4.47976 20.3624 4.47451ZM8.21729 15.1272C7.04989 15.1272 6.08694 14.0715 6.08694 12.7767C6.08694 11.4809 7.03113 10.4261 8.21729 10.4261C9.41234 10.4261 10.3664 11.4897 10.3476 12.7767C10.3476 14.0724 9.40345 15.1272 8.21729 15.1272ZM16.0938 15.1272C14.9254 15.1272 13.9634 14.0715 13.9634 12.7767C13.9634 11.4809 14.9066 10.4261 16.0938 10.4261C17.2888 10.4261 18.2429 11.4897 18.2241 12.7767C18.2241 14.0724 17.2898 15.1272 16.0938 15.1272Z" fill="white"/>
</g>
<defs>
<clipPath id="clip0_1453_8536">
<rect width="24" height="24" fill="white"/>
</clipPath>
</defs>
</svg>
