<svg width="24" height="24" viewBox="0 0 24 24" fill="none" xmlns="http://www.w3.org/2000/svg">
<path d="M23.6425 4.93561C22.8075 5.30561 21.9105 5.55561 20.9675 5.66861C21.9405 5.0864 22.6685 4.17008 23.0155 3.09061C22.1014 3.6336 21.1009 4.01581 20.0575 4.22061C19.3559 3.47148 18.4266 2.97494 17.4138 2.80809C16.4011 2.64123 15.3616 2.8134 14.4568 3.29786C13.5519 3.78233 12.8323 4.55197 12.4097 5.48732C11.9871 6.42266 11.8851 7.47136 12.1195 8.47061C10.2672 8.37761 8.45515 7.89616 6.80095 7.05752C5.14674 6.21887 3.68736 5.04177 2.51752 3.60261C2.11752 4.29261 1.88752 5.09261 1.88752 5.94461C1.88708 6.71161 2.07596 7.46685 2.4374 8.14334C2.79885 8.81983 3.32168 9.39665 3.95952 9.82261C3.2198 9.79907 2.4964 9.5992 1.84952 9.23961V9.29961C1.84945 10.3754 2.22156 11.418 2.90271 12.2506C3.58386 13.0832 4.53209 13.6545 5.58652 13.8676C4.90031 14.0533 4.18086 14.0807 3.48252 13.9476C3.78002 14.8732 4.35952 15.6826 5.13989 16.2625C5.92026 16.8424 6.86244 17.1638 7.83452 17.1816C6.18436 18.477 4.14641 19.1797 2.04852 19.1766C1.6769 19.1767 1.3056 19.155 0.936523 19.1116C3.066 20.4808 5.54486 21.2074 8.07652 21.2046C16.6465 21.2046 21.3315 14.1066 21.3315 7.95061C21.3315 7.75061 21.3265 7.54861 21.3175 7.34861C22.2288 6.68959 23.0154 5.87351 23.6405 4.93861L23.6425 4.93561Z" fill="white"/>
</svg>
