<svg width="51" height="48" viewBox="0 0 51 48" fill="none" xmlns="http://www.w3.org/2000/svg">
<path d="M33.5385 36.8205C34.7692 35.6923 36.1026 34.5641 37.5385 33.4359C43.3846 28.7179 50.0513 23.2821 50.0513 13.7436C50.0513 6.15385 44.1026 0 36.8205 0C32.2051 0 27.7949 2.5641 25.4359 6.76923L25.1282 7.38462L24.8205 6.76923C22.359 2.5641 17.9487 0 13.2308 0C5.94872 0 0 6.15385 0 13.8462C0 23.2821 6.46154 28.6154 12.2051 33.2308C13.7436 34.4615 15.1795 35.6923 16.4103 36.8205C21.9487 42.0513 23.6923 45.4359 23.6923 45.5385L24.9231 48L26.2564 45.641C26.4615 45.4359 29.0256 41.0256 33.5385 36.8205ZM26.0513 40.718C25.9487 40.9231 25.641 41.2308 25.5385 41.4359L25.4359 41.641L25.0256 42.2564L24.8205 41.8462L24.6154 41.641C24.3077 41.1282 24 40.6154 23.6923 40.2051C22.1538 38.2564 20.4103 36.4103 18.4615 34.5641C17.1282 33.2308 15.5897 32.1026 14.0513 30.7692C11.8974 29.0256 9.64102 27.1795 7.79487 25.1282L7.48718 24.8205C4.41026 21.3333 2.97436 17.8462 2.97436 13.7436C2.97436 7.89744 7.58974 3.07692 13.2308 3.07692C18.7692 3.07692 23.2821 7.17949 23.6923 12.7179C23.7949 17.8462 20.5128 20.718 18.9744 21.641C16.9231 22.8718 14.0513 23.3846 10.7692 23.5897L12.5128 23.8974C22.7692 25.9487 23.6923 31.2821 24.5128 36.6154L24.9231 39.4872L25.3333 36.6154C26.359 29.0256 28.8205 25.641 37.3333 24.1026L39.282 23.7949C36.3077 23.5897 33.4359 23.0769 31.1795 21.7436C29.5385 20.8205 26.0513 18.0513 26.1538 12.7179C26.6667 7.28205 31.2821 3.07692 36.8205 3.07692C42.4615 3.07692 47.1795 7.89744 47.1795 13.8462C47.1795 17.2308 46.1538 20.3077 44 23.2821L43.5897 23.7949C43.282 24.1026 43.0769 24.5128 42.7692 24.8205L42.4615 25.2308C40.5128 27.3846 38.1538 29.2308 35.8974 31.0769C34.4615 32.2051 33.1282 33.3333 31.7949 34.5641C29.2308 36.718 27.282 39.0769 26.0513 40.718Z" fill="white"/>
</svg>
