<svg width="91" height="24" viewBox="0 0 91 24" fill="none" xmlns="http://www.w3.org/2000/svg">
<path d="M35.2664 10.3569C35.9412 10.0635 36.5573 9.65273 37.0267 9.12461L37.0854 9.06593L36.0292 8.03903L35.9705 8.09771C35.2077 8.91923 34.2395 9.32999 33.0952 9.32999C32.3324 9.32999 31.6576 9.15395 31.0414 8.83121C30.4253 8.47913 29.9558 8.00969 29.6038 7.4229C29.2517 6.8361 29.0756 6.16128 29.0756 5.42779C29.0756 4.69429 29.2517 4.01947 29.6038 3.43268C29.9558 2.84588 30.4253 2.37644 31.0414 2.02436C31.6576 1.67229 32.3324 1.52559 33.0952 1.52559C34.2395 1.52559 35.2077 1.93634 35.9705 2.72852L36.0292 2.7872L37.0854 1.76031L37.0267 1.70163C36.5573 1.17351 35.9705 0.73341 35.2664 0.469352C34.5915 0.205293 33.8287 0.0585938 33.0072 0.0585938C31.951 0.0585938 30.9827 0.293313 30.1612 0.76275C29.3104 1.17351 28.6356 1.81898 28.1661 2.6405C27.6967 3.46202 27.4326 4.40089 27.4326 5.39845C27.4326 6.42534 27.6673 7.33488 28.1661 8.15639C28.6356 8.97791 29.3104 9.62339 30.1612 10.0928C31.0121 10.5623 31.9803 10.797 33.0072 10.797C33.8287 10.797 34.5915 10.6503 35.2664 10.3569Z" fill="white"/>
<path d="M46.4741 10.6795H48.2638L45.7699 7.15875C46.4741 6.89469 47.0316 6.48394 47.413 5.92648C47.8237 5.33968 48.0291 4.63552 48.0291 3.84335C48.0291 2.69909 47.6183 1.78956 46.8555 1.11474C46.0633 0.469266 44.9778 0.117188 43.6281 0.117188H39.4912V10.6795H41.1342V7.51083H43.6281C43.7748 7.51083 43.9802 7.51083 44.2443 7.48149L46.4741 10.6502V10.6795ZM41.1049 1.55484H43.5694C44.479 1.55484 45.2125 1.76022 45.6819 2.14164C46.1514 2.52306 46.3861 3.08051 46.3861 3.81401C46.3861 4.5475 46.1514 5.10496 45.6819 5.48638C45.2125 5.8678 44.479 6.07318 43.5694 6.07318H41.1049V1.55484Z" fill="white"/>
<path d="M53.2513 10.6795H54.865V7.01205L59.0606 0.117188H57.4175L54.1021 5.54506L50.8454 0.146527L50.8161 0.117188H49.0557L53.2513 6.98271V10.6795Z" fill="white"/>
<path d="M62.4057 7.51092H64.8996C66.2492 7.51092 67.3348 7.18818 68.127 6.51336C68.9192 5.86788 69.3006 4.92901 69.3006 3.78475C69.3006 2.6405 68.8898 1.73097 68.127 1.05615C67.3348 0.410672 66.2492 0.0585938 64.8996 0.0585938H60.7627V10.6209H62.4057V7.51092ZM67.6869 3.81409C67.6869 4.54759 67.4522 5.10505 66.9827 5.48647C66.5133 5.86788 65.7798 6.07326 64.8703 6.07326H62.4057V1.55493H64.8703C65.7798 1.55493 66.5133 1.76031 66.9827 2.14172C67.4228 2.52314 67.6869 3.0806 67.6869 3.81409Z" fill="white"/>
<path d="M70.0928 1.55484H73.6722V10.6795H75.2859V1.55484H78.8654V0.117188H70.0928V1.55484Z" fill="white"/>
<path d="M89.9851 2.64059C89.5157 1.81907 88.8409 1.17359 87.99 0.704157C87.1391 0.234719 86.1709 0 85.1147 0C84.0585 0 83.0902 0.234719 82.2394 0.704157C81.3885 1.17359 80.7137 1.81907 80.2149 2.64059C79.7162 3.4621 79.4814 4.40098 79.4814 5.39853C79.4814 6.39609 79.7162 7.33496 80.2149 8.15648C80.7137 8.97799 81.3885 9.62347 82.2394 10.0929C83.0902 10.5623 84.0585 10.7971 85.1147 10.7971C86.1709 10.7971 87.1391 10.5623 87.9607 10.0929C88.8115 9.62347 89.4863 8.97799 89.9558 8.15648C90.4252 7.33496 90.6893 6.39609 90.6893 5.39853C90.6893 4.40098 90.4546 3.43276 89.9851 2.64059ZM89.0756 5.39853C89.0756 6.13203 88.8995 6.80685 88.5475 7.39364C88.1954 7.98044 87.7259 8.44988 87.1391 8.80196C86.5524 9.15403 85.8775 9.30073 85.1147 9.30073C84.3812 9.30073 83.677 9.12469 83.0903 8.80196C82.4741 8.44988 82.0047 7.98044 81.6526 7.39364C81.3005 6.80685 81.1245 6.13203 81.1245 5.39853C81.1245 4.66504 81.3005 3.99022 81.6526 3.40342C82.0047 2.81663 82.4741 2.34719 83.0903 1.99511C83.7064 1.64303 84.3812 1.49633 85.1147 1.49633C85.8482 1.49633 86.5524 1.67237 87.1391 1.99511C87.7259 2.34719 88.2247 2.81663 88.5475 3.40342C88.8995 3.99022 89.0756 4.66504 89.0756 5.39853Z" fill="white"/>
<path d="M29.8676 13.3203H28.2246V23.8827H29.8676V13.3203Z" fill="white"/>
<path d="M39.9904 13.9639C39.1395 13.5238 38.142 13.2891 37.027 13.2891H32.5674V23.8514H37.027C38.142 23.8514 39.1395 23.6167 39.9904 23.1766C40.8412 22.7365 41.516 22.1204 42.0148 21.2988C42.4843 20.5067 42.719 19.5678 42.719 18.5409C42.719 17.514 42.4843 16.5751 42.0148 15.7829C41.5454 15.0495 40.8706 14.404 39.9904 13.9639ZM41.1053 18.5996C41.1053 19.3624 40.9292 20.0372 40.6065 20.5947C40.2544 21.1815 39.785 21.6216 39.1688 21.9443C38.5527 22.2671 37.8192 22.4138 36.9684 22.4138H34.2398V14.7561H36.9684C37.7899 14.7561 38.5234 14.9321 39.1688 15.2255C39.785 15.5482 40.2838 15.9883 40.6065 16.5751C40.9292 17.1619 41.1053 17.8367 41.1053 18.5996Z" fill="white"/>
<path d="M53.0759 13.9073C52.225 13.4378 51.2568 13.2031 50.2299 13.2031C49.1737 13.2031 48.2055 13.4378 47.3546 13.9073C46.5038 14.3767 45.829 15.0222 45.3302 15.8437C44.8314 16.6652 44.5967 17.6041 44.5967 18.6017C44.5967 19.5992 44.8314 20.5381 45.3302 21.3596C45.829 22.1811 46.5038 22.8266 47.3546 23.296C48.2055 23.7655 49.1737 24.0002 50.2299 24.0002C51.2862 24.0002 52.2544 23.7655 53.0759 23.296C53.9268 22.8266 54.6016 22.1811 55.071 21.3596C55.5404 20.5381 55.8045 19.5992 55.8045 18.6017C55.8045 17.5748 55.5698 16.6652 55.071 15.8437C54.6016 15.0222 53.9268 14.3474 53.0759 13.9073ZM54.1615 18.6017C54.1615 19.3352 53.9854 20.01 53.6334 20.5968C53.2813 21.1836 52.8118 21.653 52.225 22.0051C51.6382 22.3572 50.9634 22.5039 50.2006 22.5039C49.4671 22.5039 48.7629 22.3278 48.1761 22.0051C47.56 21.653 47.0906 21.1836 46.7385 20.5968C46.3864 20.01 46.2104 19.3352 46.2104 18.6017C46.2104 17.8682 46.3864 17.1933 46.7385 16.6065C47.0906 16.0198 47.56 15.5503 48.1761 15.1982C48.7923 14.8462 49.4671 14.6995 50.2006 14.6995C50.9341 14.6995 51.6382 14.8755 52.225 15.1982C52.8118 15.5503 53.3106 16.0198 53.6334 16.6065C53.9854 17.164 54.1615 17.8388 54.1615 18.6017Z" fill="white"/>
<path d="M59.5307 13.3203H57.8877V23.8533H65.164V22.4157H59.5307V13.3203Z" fill="white"/>
<path d="M75.2275 14.4352H75.2568V13.3203H66.6896V14.758H73.0563L66.6016 22.7384V22.7677V23.8533H75.4329V22.4157H68.8314L75.2275 14.4352Z" fill="white"/>
<path d="M18.4841 0.0273438C15.9902 0.0273438 13.7017 1.3183 12.5868 3.31341L12.5575 3.34275L12.5281 3.31341C11.2958 1.23028 9.15403 0.0273438 6.66015 0.0273438C2.99267 0.0273438 0 2.96133 0 6.92221C0 11.6166 3.25672 14.2865 6.13203 16.6337C6.89487 17.2498 7.62836 17.8366 8.2445 18.4528C11.0024 21.064 11.912 22.7951 11.9413 22.8244L12.5575 23.998L13.2029 22.8538C13.2029 22.8244 14.5232 20.5652 16.8411 18.4528C17.4572 17.8953 18.132 17.3379 18.8655 16.7511C21.7995 14.3745 25.1443 11.6753 25.1443 6.92221C25.1149 2.87331 22.0636 0.0273438 18.4841 0.0273438ZM12.5868 14.9613L12.5575 15.02L12.5281 14.9613C11.8533 13.9051 11.1198 13.1423 10.1809 12.6141L10.1222 12.5848L10.1809 12.5555C10.7971 12.2621 11.9413 11.2938 12.5281 10.2083L12.5575 10.1496L12.5868 10.2083C13.1443 11.1178 14.0538 12.086 14.934 12.5555L14.9927 12.5848L14.934 12.6141C13.9658 13.1423 13.1149 14.1105 12.5868 14.9613ZM9.21271 17.3672C8.5379 16.7217 7.77506 16.1056 7.01222 15.4894C4.28362 13.2596 1.43765 10.9418 1.43765 6.95155C1.43765 3.69483 3.93154 1.55302 6.63081 1.55302C9.47677 1.55302 11.7653 3.69483 11.9413 6.57013C12 8.59458 11.0905 10.2083 9.53545 11.2352C8.56724 11.8806 7.45232 12.1154 6.74817 12.2327C5.77995 12.4088 3.96088 12.6435 3.96088 12.6435L6.01467 12.8782C6.68949 12.9662 7.33496 13.0836 7.92176 13.289C11.1785 14.3745 11.7653 16.7217 12.088 19.0102L12.3814 20.9467C11.824 20.0665 10.7971 18.8635 9.21271 17.3672ZM17.956 15.6068C17.2518 16.1643 16.5477 16.7511 15.8729 17.3379C14.4352 18.6288 13.379 19.9784 12.7042 20.9173L12.9682 18.9515C13.2616 15.6655 14.6406 13.8464 17.4279 13.1129C17.868 12.9956 18.3374 12.9075 18.8655 12.8489L21.3301 12.6435C21.3301 12.6435 19.6284 12.5848 19.3936 12.5555C18.2787 12.4674 17.1345 12.2914 15.4914 11.1765C13.9364 10.1203 13.0856 8.44788 13.1736 6.48211C13.379 3.60681 15.6381 1.52368 18.4841 1.52368C21.3007 1.52368 23.7066 3.9002 23.7066 6.95155C23.6773 10.9711 20.7726 13.3183 17.956 15.6068Z" fill="white"/>
</svg>
